<?xml version="1.0" standalone="no"?>
<!DOCTYPE svg PUBLIC "-//W3C//DTD SVG 1.1//EN" "http://www.w3.org/Graphics/SVG/1.1/DTD/svg11.dtd">
<svg width="100%" height="100%" viewBox="0 0 512 512" version="1.1" xmlns="http://www.w3.org/2000/svg" xmlns:xlink="http://www.w3.org/1999/xlink" xml:space="preserve" style="fill-rule:evenodd;clip-rule:evenodd;stroke-linejoin:round;stroke-miterlimit:1.41421;">
    <g>
        <path d="M387.547,203.724C346.412,176.398 305.322,149.003 264.286,121.529C258.442,117.617 253.166,117.727 247.348,121.624C206.563,148.937 165.53,176.17 124.624,203.3C119.521,206.684 117,210.875 117,217.016L117,296.745C117,302.919 119.484,307.087 124.594,310.475C165.5,337.605 206.435,364.836 247.219,392.151C253.029,396.042 258.35,396.206 264.203,392.288C305.238,364.814 346.348,337.415 387.489,310.1C392.347,306.874 395,302.791 395,297.006L395,216.383C395,210.667 392.225,206.83 387.547,203.724ZM268,152.484L361.055,214.702L321.304,241.169C320.385,241.772 318.381,241.773 317.465,241.169C301.521,230.668 285.649,220.056 269.838,209.354C268.805,208.655 268.01,207.035 268,205.834L268,152.484ZM244,152.765L244,204.471C243.976,206.296 242.687,208.787 241.201,209.805C225.943,220.256 210.546,230.506 195.092,240.665C193.922,241.435 191.545,241.813 190.526,241.15C177.41,232.619 164.439,223.866 150.739,214.707C181.967,193.889 244,152.765 244,152.765ZM141,237.116L170.622,256.887L141,276.725L141,237.116ZM244,361.317C244,361.317 181.966,319.905 150.804,299.13L189.675,272.976C191.747,271.534 193.148,271.632 195.177,273.005C210.497,283.365 225.917,293.577 241.239,303.935C242.447,304.75 243.988,306.306 244,307.531L244,361.317ZM258.949,282.892C257.125,284 254.437,283.938 252.689,282.781L213.847,256.916C213.847,256.916 230.955,245.423 239.203,239.893C243.904,236.741 248.549,233.5 253.367,230.538C254.499,229.842 256.899,229.568 258.11,230.37C263.883,234.199 297.964,256.9 297.964,256.9L258.949,282.892ZM268,361.102L268,309.756C267.974,306.885 268.449,305.154 270.861,303.567C286.059,293.561 301.193,283.457 316.247,273.235C318.582,271.649 320.167,271.612 322.512,273.216L361.039,299.098L268,361.102ZM370,276.676L340.41,256.933L370,237.06L370,276.676Z" style="fill:white;"/>
        <path d="M256,64C307.285,64 355.5,83.972 391.765,120.235C428.028,156.5 448,204.715 448,256C448,307.285 428.028,355.5 391.765,391.765C355.5,428.028 307.285,448 256,448C204.715,448 156.5,428.028 120.235,391.765C83.972,355.5 64,307.285 64,256C64,204.715 83.972,156.5 120.235,120.235C156.5,83.972 204.715,64 256,64M256,32C132.288,32 32,132.288 32,256C32,379.712 132.288,480 256,480C379.712,480 480,379.712 480,256C480,132.288 379.712,32 256,32Z" style="fill:white;fill-rule:nonzero;"/>
    </g>
</svg>
