<?xml version="1.0" standalone="no"?>
<!DOCTYPE svg PUBLIC "-//W3C//DTD SVG 1.1//EN" "http://www.w3.org/Graphics/SVG/1.1/DTD/svg11.dtd">
<svg width="100%" height="100%" viewBox="0 0 512 512" version="1.1" xmlns="http://www.w3.org/2000/svg" xmlns:xlink="http://www.w3.org/1999/xlink" xml:space="preserve" style="fill-rule:evenodd;clip-rule:evenodd;stroke-linejoin:round;stroke-miterlimit:1.41421;">
    <path d="M256,64C150,64 64,150 64,256C64,362.1 150,448 256,448C362,448 448,362.1 448,256C448,150 362,64 256,64ZM377.9,152.5C399.5,177.9 413.2,210.1 415.6,245.4C381,243.6 339.6,243.6 306.4,246.7C302.2,236.1 297.9,225.7 293.2,215.7C331.5,199.1 361,177.3 377.9,152.5ZM256,96C294.8,96 330.4,109.8 358.1,132.8C340.7,154.8 313.4,173.9 279.4,188.4C260.8,154 239.4,124.4 216.6,101.1C229.3,97.9 242.4,96 256,96ZM183.6,113.5C206.7,136.5 228.4,165.8 247.4,200.1C211.3,211.1 169.9,217.4 125.7,217.4C117.3,217.4 109.1,217.1 101,216.6C112.5,171.5 143,134.1 183.6,113.5ZM96.3,248.4C105.4,248.8 114.6,249 123.9,248.9C174.3,248.3 221.2,240.4 261.5,227.5C265.3,235.4 268.9,243.5 272.3,251.8C266.8,253.1 261.9,254.5 258,256.1C202.9,279.2 159.5,316.5 136,361.6C111.2,333.4 96,296.5 96,256C96,253.4 96.1,250.9 96.3,248.4ZM256,416C219,416 185,403.4 157.9,382.3C179.2,340.1 217.2,305.2 265.1,283.5C269.6,281.4 275.6,279.7 282.5,278.2C288.2,294 293.3,310.4 297.8,327.4C304.7,353.9 309.6,380.1 312.6,405.5C295,412.2 276,416 256,416ZM342.5,390.5C339.5,364.8 334.6,338.4 327.6,311.6C324.2,298.6 320.3,286 316.1,273.7C347.5,271.1 385.1,271.5 415,273.7C409.6,322.8 382,365 342.5,390.5Z" style="fill:white;fill-rule:nonzero;"/>
</svg>
